/vscmnt/brussel_pixiu_data/_data_brussel/112/vsc11236/PredSimResults/SUBJ09mtu3D/worker2.mot
version=1
nRows=7
nColumns=50
inDegrees=yes
endheader
                time	         pelvis_tilt	         pelvis_list	     pelvis_rotation	           pelvis_tx	           pelvis_ty	           pelvis_tz	       hip_flexion_r	     hip_adduction_r	      hip_rotation_r	        knee_angle_r	       ankle_angle_r	         mtp_angle_r	       hip_flexion_l	     hip_adduction_l	      hip_rotation_l	        knee_angle_l	       ankle_angle_l	         mtp_angle_l	    lumbar_extension	      lumbar_bending	     lumbar_rotation	 ercspn_r/activation	 intobl_r/activation	 extobl_r/activation	    abd_r/activation	    add_r/activation	hamstrings_r/activation	bifemsh_r/activation	glut_max_r/activation	iliopsoas_r/activation	rect_fem_r/activation	  vasti_r/activation	gastroc_r/activation	 soleus_r/activation	tib_ant_r/activation	 ercspn_l/activation	 intobl_l/activation	 extobl_l/activation	    abd_l/activation	    add_l/activation	hamstrings_l/activation	bifemsh_l/activation	glut_max_l/activation	iliopsoas_l/activation	rect_fem_l/activation	  vasti_l/activation	gastroc_l/activation	 soleus_l/activation	tib_ant_l/activation	
          1.79034934	         -6.66522315	          1.45489046	         -5.84089307	          2.22003318	          0.98937001	         -0.00158737	        -10.54150772	         -2.59207721	          4.57265921	         -9.54794112	          5.40520936	         35.08877787	         26.68140868	         -0.54667465	         -0.36416241	          2.74969366	         -1.43276338	          0.24498587	        -13.28249816	          1.45735611	          3.76080597	          0.01000083	          0.01000051	          0.01000066	          0.02956796	          0.01000055	          0.03146085	          0.33705946	          0.01757096	          0.14823499	          0.01000118	          0.01001121	          0.40691296	          0.12896227	          0.01009148	          0.01203637	          0.20697627	          0.09891813	          0.03846362	          0.12780482	          0.07016487	          0.30753577	          0.01952341	          0.04849913	          0.01723956	          0.02769055	          0.01000166	          0.01000028	          0.41070949	
          1.80228500	         -6.66357269	          1.60606369	         -6.04511736	          2.23895029	          0.98758283	         -0.00209521	        -11.24565531	         -2.90071621	          4.44523099	        -10.12707090	          4.33872671	         36.80330291	         26.40942382	         -0.33253329	         -0.79988446	          1.54110437	         -1.96592578	          0.26616593	        -12.84229888	          1.02228970	          3.81454040	          0.01000155	          0.01000148	          0.01970073	          0.02466208	          0.01000632	          0.04603839	          0.30822657	          0.01465861	          0.14794127	          0.01000081	          0.01000794	          0.37416702	          0.10756498	          0.01000009	          0.01003970	          0.17263469	          0.08250557	          0.04068382	          0.12213030	          0.06079002	          0.25651160	          0.06158094	          0.04045214	          0.01437935	          0.02309664	          0.01755615	          0.01437461	          0.42433242	
          1.81422067	         -6.65090678	          1.76340459	         -6.21716932	          2.25817074	          0.98598196	         -0.00264566	        -11.76822108	         -3.20047303	          4.28124149	        -11.07048684	          3.18177209	         38.51901797	         26.11717783	         -0.10280558	         -1.19250878	          0.08388747	         -2.50777427	          0.23769408	        -12.37985250	          0.57140955	          3.85742385	          0.01000184	          0.01000506	          0.03620835	          0.02057018	          0.01376912	          0.05322851	          0.25709053	          0.01437787	          0.18123940	          0.01000080	          0.01001021	          0.31734851	          0.08971774	          0.01000015	          0.01000126	          0.14399104	          0.06881618	          0.07722643	          0.11768040	          0.06591303	          0.21395714	          0.10027199	          0.03374030	          0.01199372	          0.01926504	          0.01464344	          0.01198966	          0.48159968	
          1.82615633	         -6.63274839	          1.93059479	         -6.35475139	          2.27742317	          0.98480491	         -0.00323777	        -12.00612319	         -3.48662254	          4.09269122	        -12.50893878	          1.89620794	         40.19487419	         25.77878536	          0.14824347	         -1.51756712	         -1.24560243	         -3.23898873	          0.20601804	        -11.92385685	          0.10276416	          3.88501540	          0.01000166	          0.01000288	          0.03020108	          0.01715722	          0.04151989	          0.04444147	          0.21443501	          0.01199364	          0.21606455	          0.01000056	          0.01000691	          0.26469371	          0.07483169	          0.01000010	          0.01000133	          0.12009994	          0.05739815	          0.12579170	          0.15716274	          0.06605773	          0.17845798	          0.14246251	          0.02814210	          0.01000410	          0.01606968	          0.01221399	          0.01000054	          0.52706328	
          1.83809199	         -6.61192210	          2.10227689	         -6.45673206	          2.29643268	          0.98427455	         -0.00385120	        -11.85207894	         -3.74486577	          3.89964831	        -14.58539947	          0.45645696	         41.72239128	         25.44783228	          0.41856130	         -1.76361341	         -2.60893974	         -3.70220035	          0.15685334	        -11.50547339	         -0.37952906	          3.89212751	          0.03109906	          0.01000090	          0.02519039	          0.01431053	          0.07690664	          0.03706792	          0.17885654	          0.01000420	          0.23268724	          0.01000039	          0.01000321	          0.22077540	          0.06241555	          0.01000079	          0.01000268	          0.10017286	          0.04787460	          0.17631150	          0.18126792	          0.06719577	          0.14884844	          0.19282950	          0.02347276	          0.01000109	          0.01340624	          0.01018798	          0.01000071	          0.54104424	
          1.85002765	         -6.59112179	          2.27263562	         -6.52028824	          2.31492017	          0.98463454	         -0.00444778	        -11.21090136	         -3.96157160	          3.71597796	        -17.42848481	         -1.06978939	         42.70591884	         25.14880084	          0.70024280	         -1.92093675	         -4.04788642	         -3.74131041	          0.11014060	        -11.15551816	         -0.87313144	          3.87105375	          0.06635617	          0.01000064	          0.02101111	          0.01193619	          0.10461660	          0.03091766	          0.14918100	          0.01000046	          0.20658346	          0.01000033	          0.01000206	          0.18414407	          0.05205952	          0.03421605	          0.01000171	          0.08355209	          0.03993121	          0.20785371	          0.20977334	          0.05978145	          0.12415166	          0.22231488	          0.01957817	          0.01000132	          0.01121294	          0.01000109	          0.01000067	          0.51700414	
          1.86196332	         -6.57073813	          2.42926182	         -6.54136853	          2.33273037	          0.98596832	         -0.00498652	        -10.04301689	         -4.12073260	          3.54075271	        -21.11164928	         -2.49794883	         42.51142229	         24.88361468	          0.97700869	         -2.01292856	         -5.54665472	         -3.36097993	          0.08271063	        -10.88965206	         -1.36736356	          3.81487461	          0.09819490	          0.01000039	          0.01752526	          0.01000015	          0.13645662	          0.02578783	          0.12442923	          0.01000027	          0.17230707	          0.01000029	          0.01000123	          0.15359066	          0.04342179	          0.06514930	          0.01145773	          0.06968906	          0.03330580	          0.21693049	          0.24753564	          0.05648878	          0.10355261	          0.23009013	          0.01632978	          0.01000144	          0.01811599	          0.01000089	          0.01000042	          0.45162487	
